<svg width="2407" height="1551" viewBox="0 0 2407 1551" fill="none" xmlns="http://www.w3.org/2000/svg">
<g id="floor1">
<path id="Atrium" d="M919.5 1213.5H996H1040.5V1192L1240.5 994.5L1286.5 1037H1502.5L1579.5 954.5L1627.5 905C1570 828 1641 734.5 1736 801L1759.5 778V728.5H2159L2405.5 486V342.5H2330V208V89H2277.5V1.5H2206L2191.5 19.5H2117V1.5H1991L1963.5 27V113.5H2073.5V134V265.5L2117 262.5V371H2168.5V410H2144.5V514L2008.5 650H1721.5H1565.5V626L1573.5 618L1510.5 561L1487.5 584V676L1455 704.5H1203.5L1174.5 681V301.5V244H1254V38H1238.5L1171.5 104.5V153.5H1101.5V606.5H935.5V572H748V652H467V572H376.5V650H349.5V670.5H312.5V712H540V893H520V1243.5H305.5V1299H601V1192L580 1127L605.5 1119.5C584.7 1044.3 596.833 964.5 605.5 934L580 926.5C592 879.3 617 833.833 628 817V774.5L684 712H919.5V946.5H1040.5V1130H919.5V1213.5Z" fill="#FAF3DD" stroke="#FF0000" stroke-width="3"/>
<g id="TheSpoke">
<path d="M1579 955L1821 1193.5L1789 1229.5C1733 1286 1759 1372 1794 1396.5C1581.35 1617.61 1219.4 1585.76 1050.03 1378.5L1009.5 1334.5C1035.5 1327 1054 1279.5 996 1268V1213H1040V1192.5L1241 992L1288 1037.5V1084.5L1367.5 1163L1384 1144.5H1502V1037.5L1579 955Z" fill="#9B7CB3"/>
<path d="M1048 1376C1048.67 1376.84 1049.35 1377.67 1050.03 1378.5M1050.03 1378.5C1219.4 1585.76 1581.35 1617.61 1794 1396.5C1759 1372 1733 1286 1789 1229.5L1821 1193.5L1579 955L1502 1037.5V1144.5H1384L1367.5 1163L1288 1084.5V1037.5L1241 992L1040 1192.5V1213H996V1268C1054 1279.5 1035.5 1327 1009.5 1334.5L1050.03 1378.5Z" stroke="#FF0000" stroke-width="3"/>
</g>
<path id="UCC172" d="M1175 650H1327.5V705.5H1203.5L1175 681V650Z" fill="#9B7CB3" stroke="#FF0000" stroke-width="3"/>
<path id="InfoSource" d="M1328 705.5H1453.5L1486 676.5V585L1512 561V542L1328 537.5V705.5Z" fill="#9B7CB3" stroke="#FF0000" stroke-width="3"/>
<path id="CentreSpot" d="M1964 35V113.5H2074V265H2114.5V371H2168.5V409.5H2144V514L2008 651H1566.5V626L1573 618L1512.5 563.5V541.5H1328.5V493H1273V301.5H1174.5V245H1253.5V38L1964 35Z" fill="#9B7CB3" stroke="#FF0000" stroke-width="3"/>
<path id="MustangLoungeWest" d="M760 486.5V36H76.5V188H2V327H76.5V669.5H258V571.5H376H507.5V651.5H747V571.5H576V486.5H760Z" fill="#9B7CB3" stroke="#FF0000" stroke-width="3"/>
<path id="MustangLoungeEast" d="M1102 606.5V36H760V487H903V571.5H935V606.5H1102Z" fill="#9B7CB3" stroke="#FF0000" stroke-width="3"/>
<path id="UCC197" d="M2330.5 208V342.5H2405.5V208H2330.5Z" fill="#9B7CB3" stroke="#FF0000" stroke-width="3"/>
<path id="UCC198" d="M2330.5 89H2405.5V208H2330.5V89Z" fill="#9B7CB3" stroke="#FF0000" stroke-width="3"/>
<path id="UCC144" d="M763 712C842 757.5 911 894.5 920.5 1064.5V712H763Z" fill="#23022E" stroke="#FF0000" stroke-width="3"/>
<g id="UCC146">
<path d="M605.5 934C596.851 964.438 584.749 1043.98 605.373 1119.04C605.415 1119.19 605.458 1119.35 605.5 1119.5L586.182 1125.18L580.5 1127L601.5 1190V1299.5H920.5V1064.5C911 894.5 842 757.5 763 712H684L628 774.5V817C617 833.833 592 879.3 580 926.5L605.5 934Z" fill="#395B50"/>
<path d="M601 1299V1192L580 1127L586.182 1125.18M684 712L628 774.5V817C617 833.833 592 879.3 580 926.5L605.5 934C596.851 964.438 584.749 1043.98 605.373 1119.04M684 712H763C842 757.5 911 894.5 920.5 1064.5V1299.5H601.5V1190L580.5 1127L586.182 1125.18M684 712L628.5 774.5V818M605.5 1119L605.373 1119.04M605.373 1119.04C605.415 1119.19 605.458 1119.35 605.5 1119.5L586.182 1125.18M605.373 1119.04L586.182 1125.18" stroke="#FF0000" stroke-width="3"/>
</g>
<path id="UCC147A" d="M520 1243.5V1069.5H305.5V1243.5H520Z" fill="#395B50" stroke="#FF0000" stroke-width="3"/>
<path id="UCC147B" d="M519.5 1069V893H305V1069H519.5Z" fill="#395B50" stroke="#FF0000" stroke-width="3"/>
<path id="UCC149" d="M539.5 893V712H300V893H539.5Z" fill="#9B7CB3" stroke="#FF0000" stroke-width="3"/>
<g id="Bathrooms">
<path d="M1328.5 493.5V572.5H1174.5V493.5H1328.5Z" fill="#009FB7"/>
<path d="M1328.5 572.5H1174.5V650.5H1328.5V572.5Z" fill="#009FB7"/>
<path d="M1502 1038V1145H1416V1103H1395.5V1038H1502Z" fill="#009FB7"/>
<path d="M1416 1145V1103H1395.5V1038H1287.5V1084.5L1367 1162.5L1384 1145H1416Z" fill="#009FB7"/>
<path d="M921 947H1040V1038H921V947Z" fill="#009FB7"/>
<path d="M1040 1038H921V1130H1040V1038Z" fill="#009FB7"/>
<path d="M902.5 572.5V487.5H748V572.5H902.5Z" fill="#009FB7"/>
<path d="M748 572.5V487.5H576.5V572.5H748Z" fill="#009FB7"/>
<path d="M258 669.5H349.5V649.864H376.5V572.5H258V669.5Z" fill="#009FB7"/>
<path d="M467 572.5H507V652H467V572.5Z" fill="#009FB7"/>
<path d="M1328.5 572.5V493.5H1174.5V572.5M1328.5 572.5H1174.5M1328.5 572.5V650.5H1174.5V572.5M1416 1145H1502V1038H1395.5M1416 1145V1103H1395.5V1038M1416 1145H1384L1367 1162.5L1287.5 1084.5V1038H1395.5M1040 1038V947H921V1038M1040 1038H921M1040 1038V1130H921V1038M748 572.5H902.5V487.5H748M748 572.5V487.5M748 572.5H576.5V487.5H748M467 572.5H507V652H467V572.5ZM258 669.5H349.5V649.864H376.5V572.5H258V669.5Z" stroke="#FF0000" stroke-width="3"/>
</g>
<path id="Elevator" d="M1273 493.5V302H1175V493.5H1273Z" fill="#514554" stroke="#FF0000" stroke-width="3"/>
</g>
</svg>
